<svg version="1.1" id="Layer_1" xmlns="http://www.w3.org/2000/svg" xmlns:xlink="http://www.w3.org/1999/xlink" x="0px" y="0px"
	 width="100%" viewBox="0 0 512 512" enable-background="new 0 0 512 512" xml:space="preserve">
<path fill="#FFFFFF" opacity="1.000000" stroke="none" 
	d="
M1.000001,242.000000 
	C1.000000,161.701752 1.000000,81.403511 1.000000,1.052632 
	C171.557007,1.052632 342.114044,1.052632 513.000000,1.052632 
	C513.000000,81.021713 513.000000,161.043869 512.644165,241.328705 
	C511.137177,235.395935 509.986084,229.200470 508.765564,222.634735 
	C505.168671,213.829193 501.641205,205.393921 498.055664,196.602417 
	C493.704010,189.819244 489.410492,183.392303 484.968567,176.662689 
	C481.248688,172.890671 477.677185,169.421295 473.956482,165.648621 
	C469.573761,161.880661 465.340240,158.416016 460.925476,154.653809 
	C413.667786,124.898903 366.727783,127.650406 319.583862,155.097977 
	C314.481598,158.813217 309.687195,162.383255 304.592957,166.097992 
	C301.510254,168.795288 298.727356,171.347885 295.643768,174.048096 
	C292.188995,177.451218 289.034973,180.706711 285.581818,184.105804 
	C282.485260,187.485764 279.687836,190.722107 276.586761,194.107407 
	C269.911285,202.839737 263.539520,211.423096 257.007874,220.313934 
	C251.620529,228.081665 246.393051,235.541916 241.003937,243.312225 
	C238.188110,247.735352 235.533890,251.848419 232.575714,256.109772 
	C229.569931,260.174408 226.868103,264.090790 224.007782,268.315033 
	C218.859085,275.402039 213.868912,282.181213 208.578400,289.102905 
	C204.481583,293.814087 200.685104,298.382751 196.589050,303.091614 
	C191.630478,307.689728 186.971497,312.147675 181.979324,316.457550 
	C174.747498,320.837463 167.848846,325.365417 160.566528,329.938995 
	C155.730011,331.523590 151.323013,333.214844 146.815582,334.572662 
	C133.840912,338.481171 120.553802,339.527710 107.303604,336.864136 
	C99.719078,335.339417 92.447540,332.257812 84.862869,329.579132 
	C78.167076,324.507874 71.643486,319.734650 64.970673,314.651886 
	C59.587818,306.549103 54.354176,298.755920 49.073208,290.572784 
	C46.961864,280.456848 44.897850,270.730835 42.899757,260.610046 
	C42.056232,249.861740 43.833488,239.852188 47.010475,229.667313 
	C51.494938,221.238617 55.803257,213.141907 60.414337,204.899902 
	C67.181725,198.851974 73.646355,192.949326 80.425858,186.896973 
	C90.194153,183.182648 99.647591,179.618027 109.562912,176.032715 
	C117.649178,176.025497 125.273582,176.038971 133.139252,176.380066 
	C135.307037,176.999542 137.307373,177.053360 139.147415,177.624023 
	C147.632309,180.255463 156.072556,183.030853 164.718964,186.023331 
	C171.569946,190.877197 178.230774,195.462387 185.040405,200.348969 
	C190.002609,205.477249 195.003708,210.133606 199.582809,215.173416 
	C205.538055,221.727859 212.442062,224.444183 221.394897,223.112976 
	C231.593735,221.596497 240.235840,208.845932 237.070587,198.567856 
	C236.131805,191.496887 231.961243,186.954224 226.908539,182.596817 
	C223.880081,179.516357 220.993408,176.733932 217.956696,173.647278 
	C213.907669,170.214600 210.008667,167.086151 205.956497,163.650772 
	C202.888000,161.196182 199.972687,159.048523 196.877487,156.607269 
	C177.550140,143.861343 156.579086,136.093460 133.892715,134.192169 
	C113.911888,132.517624 93.920158,133.969635 75.359756,142.497971 
	C66.819527,146.422134 59.059708,152.044693 50.597740,156.951233 
	C47.463100,159.322769 44.676735,161.640198 41.592270,164.099915 
	C38.159874,167.479263 35.025578,170.716324 31.589624,174.099365 
	C28.599882,178.058670 25.911795,181.871994 22.938095,185.830261 
	C19.156448,191.983963 15.660415,197.992722 11.994718,204.329315 
	C9.271835,212.772888 6.718616,220.888580 3.977521,229.359314 
	C2.859764,233.809555 1.929883,237.904770 1.000001,242.000000 
z"/>
<path fill="#FFFFFF" opacity="1.000000" stroke="none" 
	d="
M513.000000,272.000000 
	C513.000000,352.298248 513.000000,432.596466 513.000000,512.947388 
	C342.442993,512.947388 171.885941,512.947388 1.000000,512.947388 
	C1.000000,432.978302 1.000000,352.956116 1.358873,272.667542 
	C2.867075,278.602448 4.016404,284.803802 5.239075,291.374756 
	C8.596800,299.829803 11.881183,307.915192 15.213469,316.343903 
	C18.562855,321.791901 21.864336,326.896576 25.207508,332.333282 
	C27.798298,335.460052 30.347395,338.254791 33.040028,341.353424 
	C37.106117,345.474640 41.028671,349.292023 45.118336,353.405609 
	C49.875679,356.745850 54.465904,359.789917 59.363880,363.004456 
	C74.515327,373.073090 91.097137,378.411926 108.640015,379.822906 
	C126.887474,381.290588 145.194611,380.061798 162.616959,373.835876 
	C171.399796,370.697327 179.633408,366.021729 188.474182,362.013428 
	C193.239426,359.025726 197.645889,356.065704 202.403748,353.053741 
	C207.537399,349.018188 212.319641,345.034607 217.403503,340.913940 
	C220.510376,337.863525 223.315628,334.950226 226.421661,331.899933 
	C230.760239,327.175690 234.798050,322.588409 238.992386,317.694946 
	C242.711243,312.926056 246.273575,308.463318 249.994659,303.690857 
	C253.372101,298.690247 256.590820,293.999390 260.092896,289.164551 
	C264.958588,282.357819 269.540863,275.695099 274.416138,268.860687 
	C277.178406,264.806488 279.647614,260.923981 282.409180,256.869568 
	C285.502136,252.482712 288.302673,248.267776 291.410217,243.903152 
	C297.511475,236.186264 303.305725,228.619080 309.390991,220.882431 
	C310.671844,219.426605 311.526581,218.002747 312.673462,216.876358 
	C319.763733,209.912704 326.919739,203.016022 334.365967,195.948334 
	C339.469543,192.567688 344.260986,189.335815 349.421448,186.048447 
	C358.191406,182.939835 366.592316,179.886734 375.430664,176.898651 
	C379.295746,176.642792 382.717194,176.208313 386.152130,176.022141 
	C396.901581,175.439529 407.526245,176.281235 418.143463,179.404205 
	C429.528900,183.657898 439.130280,190.177719 448.045227,198.352417 
	C453.756927,206.782349 459.317230,214.907578 464.929382,223.421906 
	C467.042725,232.208328 469.104248,240.605621 471.101837,249.434143 
	C471.080780,256.244934 471.123657,262.624512 470.979492,269.356415 
	C469.250671,275.140137 467.708832,280.571564 466.089752,286.375549 
	C463.656891,291.797546 461.301270,296.846954 458.635529,302.049408 
	C454.866699,306.765533 451.407990,311.328613 447.644287,316.039795 
	C441.209595,320.756378 435.079895,325.324829 428.583435,329.949219 
	C410.944641,338.891266 392.770111,340.198547 374.105072,336.013397 
	C366.985718,334.417053 360.060150,331.956360 352.872925,329.589325 
	C344.815765,324.156799 336.931946,319.024536 328.910889,313.591370 
	C324.074005,308.586548 319.116425,304.109161 314.737518,299.123566 
	C308.725189,292.278259 301.579559,289.521210 292.567474,290.967285 
	C282.270874,292.619446 273.755035,304.656342 276.927246,315.422852 
	C277.914520,323.033234 282.757568,327.627869 288.024536,332.339630 
	C291.078308,335.444366 293.985779,338.245453 297.040405,341.354462 
	C301.090210,344.791565 304.992798,347.920776 309.046631,351.361938 
	C312.780426,354.148499 316.362946,356.623108 320.120605,359.401062 
	C321.916931,360.481842 323.609467,361.139374 325.148743,362.054565 
	C351.354248,377.635529 379.661224,382.464874 409.729523,379.075317 
	C428.666534,376.940582 445.495880,369.740723 461.363464,358.953857 
	C464.817017,356.222656 467.960083,353.636993 471.404938,350.914124 
	C474.840668,347.532928 477.974609,344.288940 481.411377,340.906860 
	C483.959717,338.037598 486.205231,335.306427 488.677521,332.318848 
	C491.978546,327.052582 495.052795,322.042664 498.426880,316.855896 
	C500.762878,312.119690 502.799133,307.560333 504.914825,302.627686 
	C506.607422,297.170502 508.220581,292.086639 509.903656,286.594849 
	C510.982361,281.457977 511.991180,276.728973 513.000000,272.000000 
z"/>
<path fill="#974CEC" opacity="1.000000" stroke="none" 
	d="
M46.834332,229.999298 
	C43.833488,239.852188 42.056232,249.861740 42.442833,260.608459 
	C28.279991,261.001099 14.639996,261.000549 1.000000,261.000000 
	C1.000000,254.978851 1.000000,248.957703 1.000001,242.468277 
	C1.929883,237.904770 2.859764,233.809555 4.434390,229.357651 
	C14.557346,229.000458 24.037155,228.897263 33.513069,229.044647 
	C37.957363,229.113785 42.394142,229.666000 46.834332,229.999298 
z"/>
<path fill="#894EE7" opacity="1.000000" stroke="none" 
	d="
M1.000000,261.458069 
	C14.639996,261.000549 28.279991,261.001099 42.376915,261.003235 
	C44.897850,270.730835 46.961864,280.456848 48.595882,290.584290 
	C33.832500,290.992218 19.499117,290.998657 5.165732,291.005127 
	C4.016404,284.803802 2.867075,278.602448 1.358873,272.200562 
	C1.000000,268.638702 1.000000,265.277435 1.000000,261.458069 
z"/>
<path fill="#9B4BED" opacity="1.000000" stroke="none" 
	d="
M471.165771,249.002930 
	C469.104248,240.605621 467.042725,232.208328 465.407104,223.411743 
	C480.166962,223.009979 494.500977,223.007492 508.834961,223.005020 
	C509.986084,229.200470 511.137177,235.395935 512.644165,241.795685 
	C513.000000,244.041672 513.000000,246.083328 512.531372,248.562500 
	C498.430359,249.000977 484.798065,249.001953 471.165771,249.002930 
z"/>
<path fill="#904DEA" opacity="1.000000" stroke="none" 
	d="
M471.101807,249.434143 
	C484.798065,249.001953 498.430359,249.000977 512.531372,249.000000 
	C513.000000,255.354401 513.000000,261.708801 512.531372,268.531616 
	C498.430634,269.001373 484.798615,269.002747 471.166565,269.004089 
	C471.123657,262.624512 471.080780,256.244934 471.101807,249.434143 
z"/>
<path fill="#894EE7" opacity="1.000000" stroke="none" 
	d="
M470.979523,269.356415 
	C484.798615,269.002747 498.430634,269.001373 512.531372,269.000000 
	C513.000000,269.750000 513.000000,270.500000 513.000000,271.625000 
	C511.991180,276.728973 510.982361,281.457977 509.492310,286.581818 
	C506.225281,286.651123 503.441895,286.070190 500.653381,286.044556 
	C489.158783,285.938965 477.662598,286.001953 466.166992,286.002960 
	C467.708832,280.571564 469.250671,275.140137 470.979523,269.356415 
z"/>
<path fill="#C245FB" opacity="1.000000" stroke="none" 
	d="
M50.946014,156.897110 
	C59.059708,152.044693 66.819527,146.422134 75.359756,142.497971 
	C93.920158,133.969635 113.911888,132.517624 133.892715,134.192169 
	C156.579086,136.093460 177.550140,143.861343 196.590057,156.920868 
	C195.510956,157.685013 194.539490,157.978729 193.567871,157.979202 
	C147.405792,158.002014 101.243668,158.008972 55.081642,157.953430 
	C53.702675,157.951782 52.324535,157.264648 50.946014,156.897110 
z"/>
<path fill="#C245FB" opacity="1.000000" stroke="none" 
	d="
M319.891754,154.952774 
	C366.727783,127.650406 413.667786,124.898903 460.533691,154.823120 
	C458.534790,155.526657 456.746552,155.968369 454.957916,155.969971 
	C412.033936,156.008545 369.109894,156.014755 326.185974,155.955505 
	C324.087433,155.952606 321.989807,155.301849 319.891754,154.952774 
z"/>
<path fill="#B846F8" opacity="1.000000" stroke="none" 
	d="
M206.109680,163.957718 
	C210.008667,167.086151 213.907669,170.214600 217.564941,173.816528 
	C215.370850,174.526672 213.418854,174.965469 211.466019,174.969284 
	C187.371292,175.016388 163.276367,174.973999 139.181763,175.045670 
	C137.086197,175.051910 134.992523,175.701630 132.897980,176.052444 
	C125.273582,176.038971 117.649178,176.025497 109.172295,175.861389 
	C106.368240,175.473831 104.417145,175.035400 102.465042,175.030914 
	C81.035439,174.981644 59.605579,175.028946 38.176125,174.954315 
	C36.080036,174.947021 33.986172,174.302246 31.891277,173.953369 
	C35.025578,170.716324 38.159874,167.479263 42.015495,164.160675 
	C45.184944,164.386108 47.632790,164.958252 50.081245,164.960846 
	C99.312790,165.013184 148.544418,165.016907 197.775940,164.955505 
	C200.554260,164.952042 203.331787,164.305145 206.109680,163.957718 
z"/>
<path fill="#BC46F9" opacity="1.000000" stroke="none" 
	d="
M319.583862,155.097977 
	C321.989807,155.301849 324.087433,155.952606 326.185974,155.955505 
	C369.109894,156.014755 412.033936,156.008545 454.957916,155.969971 
	C456.746552,155.968369 458.534790,155.526657 460.714966,155.120682 
	C465.340240,158.416016 469.573761,161.880661 473.564819,165.817902 
	C471.533417,166.527008 469.744598,166.968857 467.955444,166.970123 
	C415.699951,167.007034 363.444427,167.012146 311.188965,166.955780 
	C309.089874,166.953506 306.991516,166.302200 304.892822,165.953293 
	C309.687195,162.383255 314.481598,158.813217 319.583862,155.097977 
z"/>
<path fill="#B846F8" opacity="1.000000" stroke="none" 
	d="
M304.592957,166.097992 
	C306.991516,166.302200 309.089874,166.953506 311.188965,166.955780 
	C363.444427,167.012146 415.699951,167.007034 467.955444,166.970123 
	C469.744598,166.968857 471.533417,166.527008 473.714050,166.121201 
	C477.677185,169.421295 481.248688,172.890671 484.544434,176.720718 
	C481.988037,177.387802 479.708405,177.950668 477.426544,177.959961 
	C459.474731,178.033218 441.522339,177.968155 423.570618,178.048920 
	C421.696259,178.057343 419.824921,178.735992 417.952179,179.103668 
	C407.526245,176.281235 396.901581,175.439529 386.152130,176.022141 
	C382.717194,176.208313 379.295746,176.642792 375.325256,176.516525 
	C373.094543,175.712921 371.407654,175.051224 369.718750,175.046112 
	C346.997162,174.977310 324.275208,175.025772 301.553650,174.952393 
	C299.682831,174.946350 297.814148,174.266998 295.944489,173.900482 
	C298.727356,171.347885 301.510254,168.795288 304.592957,166.097992 
z"/>
<path fill="#A749F1" opacity="1.000000" stroke="none" 
	d="
M334.053894,196.097107 
	C326.919739,203.016022 319.763733,209.912704 312.673462,216.876358 
	C311.526581,218.002747 310.671844,219.426605 309.000427,220.711838 
	C306.369232,220.474213 304.420410,220.039795 302.470001,220.032654 
	C287.369415,219.977402 272.268524,220.004715 257.167725,220.006454 
	C263.539520,211.423096 269.911285,202.839737 277.009949,194.168213 
	C279.849792,194.387100 281.961456,194.949371 284.075989,194.960266 
	C299.027496,195.037323 313.979736,194.966064 328.931183,195.049423 
	C330.640656,195.058945 332.346436,195.731812 334.053894,196.097107 
z"/>
<path fill="#6E53DE" opacity="1.000000" stroke="none" 
	d="
M226.120880,332.036896 
	C223.315628,334.950226 220.510376,337.863525 217.012909,340.743774 
	C214.531693,340.473785 212.742828,340.031006 210.953690,340.029877 
	C153.699783,339.993561 96.445854,339.988861 39.191986,340.044281 
	C37.093166,340.046326 34.994980,340.699738 32.896496,341.049561 
	C30.347395,338.254791 27.798298,335.460052 25.664820,332.332764 
	C44.146626,332.000153 62.213234,332.053070 80.278259,331.907745 
	C81.869209,331.894928 83.449722,330.584808 85.035080,329.877197 
	C92.447540,332.257812 99.719078,335.339417 107.303604,336.864136 
	C120.553802,339.527710 133.840912,338.481171 146.815582,334.572662 
	C151.323013,333.214844 155.730011,331.523590 160.850891,330.254700 
	C163.318771,330.683167 165.118378,330.975433 166.918564,330.979156 
	C183.875565,331.014191 200.832947,330.953491 217.789505,331.046478 
	C220.568359,331.061707 223.343826,331.691254 226.120880,332.036896 
z"/>
<path fill="#A749F1" opacity="1.000000" stroke="none" 
	d="
M508.765564,222.634735 
	C494.500977,223.007492 480.166962,223.009979 465.355255,223.022629 
	C459.317230,214.907578 453.756927,206.782349 448.436981,198.183533 
	C450.618195,197.473480 452.558136,197.041367 454.500092,197.031815 
	C469.037750,196.960480 483.575806,196.972626 498.113739,196.958633 
	C501.641205,205.393921 505.168671,213.829193 508.765564,222.634735 
z"/>
<path fill="#9B4BED" opacity="1.000000" stroke="none" 
	d="
M257.007874,220.313934 
	C272.268524,220.004715 287.369415,219.977402 302.470001,220.032654 
	C304.420410,220.039795 306.369232,220.474213 308.709351,220.881302 
	C303.305725,228.619080 297.511475,236.186264 291.019470,243.732300 
	C288.372406,243.474091 286.423889,243.039307 284.473694,243.031540 
	C270.037811,242.973984 255.601654,243.001450 241.165573,243.002182 
	C246.393051,235.541916 251.620529,228.081665 257.007874,220.313934 
z"/>
<path fill="#A749F1" opacity="1.000000" stroke="none" 
	d="
M47.010475,229.667328 
	C42.394142,229.666000 37.957363,229.113785 33.513069,229.044647 
	C24.037155,228.897263 14.557346,229.000458 4.622265,229.002625 
	C6.718616,220.888580 9.271835,212.772888 12.451397,204.328522 
	C26.666004,203.999527 40.254562,203.954834 53.842216,204.045593 
	C55.934135,204.059555 58.021896,204.696411 60.111580,205.045197 
	C55.803257,213.141907 51.494938,221.238617 47.010475,229.667328 
z"/>
<path fill="#7C50E3" opacity="1.000000" stroke="none" 
	d="
M5.239074,291.374756 
	C19.499117,290.998657 33.832500,290.992218 48.643211,290.974243 
	C54.354176,298.755920 59.587818,306.549103 64.493546,314.663757 
	C50.264999,314.990112 36.364037,314.947418 22.464060,315.044861 
	C20.029116,315.061920 17.598293,315.667084 15.165566,316.000610 
	C11.881183,307.915192 8.596800,299.829803 5.239074,291.374756 
z"/>
<path fill="#B048F5" opacity="1.000000" stroke="none" 
	d="
M498.055664,196.602417 
	C483.575806,196.972626 469.037750,196.960480 454.500092,197.031815 
	C452.558136,197.041367 450.618195,197.473480 448.285583,197.878830 
	C439.130280,190.177719 429.528900,183.657898 418.143463,179.404205 
	C419.824921,178.735992 421.696259,178.057343 423.570618,178.048920 
	C441.522339,177.968155 459.474731,178.033218 477.426544,177.959961 
	C479.708405,177.950668 481.988037,177.387802 484.692810,177.023376 
	C489.410492,183.392303 493.704010,189.819244 498.055664,196.602417 
z"/>
<path fill="#BC46F9" opacity="1.000000" stroke="none" 
	d="
M205.956497,163.650772 
	C203.331787,164.305145 200.554260,164.952042 197.775940,164.955505 
	C148.544418,165.016907 99.312790,165.013184 50.081245,164.960846 
	C47.632790,164.958252 45.184944,164.386108 42.313591,164.018387 
	C44.676735,161.640198 47.463100,159.322769 50.597740,156.951233 
	C52.324535,157.264648 53.702675,157.951782 55.081642,157.953430 
	C101.243668,158.008972 147.405792,158.002014 193.567871,157.979202 
	C194.539490,157.978729 195.510956,157.685013 196.769928,157.214493 
	C199.972687,159.048523 202.888000,161.196182 205.956497,163.650772 
z"/>
<path fill="#894EE7" opacity="1.000000" stroke="none" 
	d="
M274.123138,269.032410 
	C269.540863,275.695099 264.958588,282.357819 259.561859,289.072296 
	C242.124542,289.069519 225.501648,289.014984 208.878754,288.960419 
	C213.868912,282.181213 218.859085,275.402039 224.410492,268.375000 
	C227.083160,268.418091 229.193176,268.948700 231.306274,268.961273 
	C245.578201,269.046265 259.850769,269.021606 274.123138,269.032410 
z"/>
<path fill="#B048F5" opacity="1.000000" stroke="none" 
	d="
M60.414337,204.899902 
	C58.021896,204.696411 55.934135,204.059555 53.842216,204.045593 
	C40.254562,203.954834 26.666004,203.999527 12.621061,204.000671 
	C15.660415,197.992722 19.156448,191.983963 23.467377,185.924622 
	C40.807995,185.916016 57.333984,185.921677 73.859093,186.045563 
	C75.945450,186.061203 78.027145,186.697784 80.110992,187.046692 
	C73.646355,192.949326 67.181725,198.851974 60.414337,204.899902 
z"/>
<path fill="#7452E0" opacity="1.000000" stroke="none" 
	d="
M15.213470,316.343933 
	C17.598293,315.667084 20.029116,315.061920 22.464060,315.044861 
	C36.364037,314.947418 50.264999,314.990112 64.642761,314.973328 
	C71.643486,319.734650 78.167076,324.507874 84.862877,329.579163 
	C83.449722,330.584808 81.869209,331.894928 80.278259,331.907745 
	C62.213234,332.053070 44.146626,332.000153 25.623131,332.000793 
	C21.864336,326.896576 18.562855,321.791901 15.213470,316.343933 
z"/>
<path fill="#A749F1" opacity="1.000000" stroke="none" 
	d="
M237.114487,198.957870 
	C240.235840,208.845932 231.593735,221.596497 221.394897,223.112976 
	C212.442062,224.444183 205.538055,221.727859 199.582809,215.173416 
	C195.003708,210.133606 190.002609,205.477249 185.432373,200.180176 
	C187.617172,199.473343 189.557877,199.040146 191.500549,199.031174 
	C206.704987,198.960861 221.909790,198.971909 237.114487,198.957870 
z"/>
<path fill="#B048F5" opacity="1.000000" stroke="none" 
	d="
M237.070587,198.567856 
	C221.909790,198.971909 206.704987,198.960861 191.500549,199.031174 
	C189.557877,199.040146 187.617172,199.473343 185.283585,199.878799 
	C178.230774,195.462387 171.569946,190.877197 165.001190,185.619873 
	C166.995056,184.631821 168.895706,184.049591 170.798767,184.041626 
	C187.850159,183.970276 204.902100,184.031128 221.953400,183.951691 
	C223.653976,183.943787 225.351410,183.263214 227.050308,182.894836 
	C231.961243,186.954224 236.131805,191.496887 237.070587,198.567856 
z"/>
<path fill="#7452E0" opacity="1.000000" stroke="none" 
	d="
M226.421646,331.899933 
	C223.343826,331.691254 220.568359,331.061707 217.789505,331.046478 
	C200.832947,330.953491 183.875565,331.014191 166.918564,330.979156 
	C165.118378,330.975433 163.318771,330.683167 161.234558,330.209045 
	C167.848846,325.365417 174.747498,320.837463 182.490448,316.584869 
	C201.835129,317.240540 220.335495,317.620850 238.835861,318.001160 
	C234.798050,322.588409 230.760239,327.175690 226.421646,331.899933 
z"/>
<path fill="#8050E4" opacity="1.000000" stroke="none" 
	d="
M208.578400,289.102905 
	C225.501648,289.014984 242.124542,289.069519 259.278473,289.216309 
	C256.590820,293.999390 253.372101,298.690247 249.537537,303.690521 
	C233.667923,303.999969 218.413956,304.039917 203.160706,303.953430 
	C201.068192,303.941559 198.979233,303.300903 196.888641,302.951355 
	C200.685104,298.382751 204.481583,293.814087 208.578400,289.102905 
z"/>
<path fill="#B547F6" opacity="1.000000" stroke="none" 
	d="
M80.425858,186.896973 
	C78.027145,186.697784 75.945450,186.061203 73.859093,186.045563 
	C57.333984,185.921677 40.807995,185.916016 23.752991,185.779663 
	C25.911795,181.871994 28.599882,178.058670 31.589622,174.099365 
	C33.986172,174.302246 36.080036,174.947021 38.176125,174.954315 
	C59.605579,175.028946 81.035439,174.981644 102.465042,175.030914 
	C104.417145,175.035400 106.368240,175.473831 108.710419,175.882080 
	C99.647591,179.618027 90.194153,183.182648 80.425858,186.896973 
z"/>
<path fill="#B547F6" opacity="1.000000" stroke="none" 
	d="
M295.643768,174.048096 
	C297.814148,174.266998 299.682831,174.946350 301.553650,174.952393 
	C324.275208,175.025772 346.997162,174.977310 369.718750,175.046112 
	C371.407654,175.051224 373.094543,175.712921 374.887817,176.451508 
	C366.592316,179.886734 358.191406,182.939835 349.135895,185.733276 
	C346.681427,185.315720 344.881866,185.024734 343.081665,185.020798 
	C326.791443,184.985291 310.500885,185.048309 294.211151,184.953400 
	C291.432587,184.937225 288.657593,184.308136 285.880951,183.962189 
	C289.034973,180.706711 292.188995,177.451218 295.643768,174.048096 
z"/>
<path fill="#7C50E3" opacity="1.000000" stroke="none" 
	d="
M196.589050,303.091583 
	C198.979233,303.300903 201.068192,303.941559 203.160706,303.953430 
	C218.413956,304.039917 233.667923,303.999969 249.378784,304.000305 
	C246.273575,308.463318 242.711243,312.926056 238.992386,317.694946 
	C220.335495,317.620850 201.835129,317.240540 182.823639,316.732910 
	C186.971497,312.147675 191.630478,307.689728 196.589050,303.091583 
z"/>
<path fill="#B547F6" opacity="1.000000" stroke="none" 
	d="
M226.908539,182.596802 
	C225.351410,183.263214 223.653976,183.943787 221.953400,183.951691 
	C204.902100,184.031128 187.850159,183.970276 170.798767,184.041626 
	C168.895706,184.049591 166.995056,184.631821 164.811035,185.351196 
	C156.072556,183.030853 147.632309,180.255463 139.147415,177.624023 
	C137.307373,177.053360 135.307037,176.999542 133.139252,176.380066 
	C134.992523,175.701630 137.086197,175.051910 139.181763,175.045670 
	C163.276367,174.973999 187.371292,175.016388 211.466019,174.969284 
	C213.418854,174.965469 215.370850,174.526672 217.714966,174.120758 
	C220.993408,176.733932 223.880081,179.516357 226.908539,182.596802 
z"/>
<path fill="#974CEC" opacity="1.000000" stroke="none" 
	d="
M241.003937,243.312225 
	C255.601654,243.001450 270.037811,242.973984 284.473694,243.031540 
	C286.423889,243.039307 288.372406,243.474091 290.712463,243.881989 
	C288.302673,248.267776 285.502136,252.482712 281.977753,256.847992 
	C278.164703,256.665344 275.077850,256.072815 271.985809,256.044525 
	C258.951263,255.925201 245.915192,255.974136 232.879669,255.961502 
	C235.533890,251.848419 238.188110,247.735352 241.003937,243.312225 
z"/>
<path fill="#904DEA" opacity="1.000000" stroke="none" 
	d="
M232.575714,256.109772 
	C245.915192,255.974136 258.951263,255.925201 271.985809,256.044525 
	C275.077850,256.072815 278.164703,256.665344 281.685364,257.019897 
	C279.647614,260.923981 277.178406,264.806488 274.416138,268.860687 
	C259.850769,269.021606 245.578201,269.046265 231.306274,268.961273 
	C229.193176,268.948700 227.083160,268.418091 224.569000,268.067139 
	C226.868103,264.090790 229.569931,260.174408 232.575714,256.109772 
z"/>
<path fill="#B048F5" opacity="1.000000" stroke="none" 
	d="
M285.581818,184.105804 
	C288.657593,184.308136 291.432587,184.937225 294.211151,184.953400 
	C310.500885,185.048309 326.791443,184.985291 343.081665,185.020798 
	C344.881866,185.024734 346.681427,185.315720 348.766846,185.788757 
	C344.260986,189.335815 339.469543,192.567688 334.365997,195.948334 
	C332.346436,195.731812 330.640656,195.058945 328.931183,195.049423 
	C313.979736,194.966064 299.027496,195.037323 284.075989,194.960266 
	C281.961456,194.949371 279.849792,194.387100 277.313599,194.019257 
	C279.687836,190.722107 282.485260,187.485764 285.581818,184.105804 
z"/>
<path fill="#6055D9" opacity="1.000000" stroke="none" 
	d="
M461.052979,359.099365 
	C445.495880,369.740723 428.666534,376.940582 409.729523,379.075317 
	C379.661224,382.464874 351.354248,377.635529 325.148743,362.054565 
	C323.609467,361.139374 321.916931,360.481842 320.407532,359.087891 
	C321.490875,358.314636 322.462372,358.021362 323.433990,358.020874 
	C367.927765,357.997955 412.421570,357.990784 456.915283,358.046539 
	C458.294952,358.048279 459.673767,358.733032 461.052979,359.099365 
z"/>
<path fill="#6A53DC" opacity="1.000000" stroke="none" 
	d="
M33.040031,341.353455 
	C34.994980,340.699738 37.093166,340.046326 39.191986,340.044281 
	C96.445854,339.988861 153.699783,339.993561 210.953690,340.029877 
	C212.742828,340.031006 214.531693,340.473785 216.711273,340.880859 
	C212.319641,345.034607 207.537399,349.018188 202.118805,352.738495 
	C200.511337,352.317108 199.540298,352.021027 198.569107,352.020599 
	C148.739929,351.997894 98.910728,351.991425 49.081596,352.046570 
	C47.704414,352.048096 46.327995,352.739655 44.951221,353.109436 
	C41.028671,349.292023 37.106117,345.474640 33.040031,341.353455 
z"/>
<path fill="#6A53DC" opacity="1.000000" stroke="none" 
	d="
M481.108551,341.044952 
	C477.974609,344.288940 474.840668,347.532928 471.014221,350.744019 
	C468.533112,350.474060 466.744629,350.031281 464.955811,350.029938 
	C415.033752,349.992615 365.111694,349.987274 315.189667,350.044434 
	C313.091187,350.046844 310.993469,350.699982 308.895386,351.049957 
	C304.992798,347.920776 301.090210,344.791565 297.432007,341.186096 
	C299.465668,340.473206 301.254822,340.030945 303.044220,340.029816 
	C360.299683,339.993561 417.555176,339.988922 474.810638,340.044067 
	C476.910278,340.046082 479.009247,340.696625 481.108551,341.044952 
z"/>
<path fill="#6055D9" opacity="1.000000" stroke="none" 
	d="
M188.115356,362.041138 
	C179.633408,366.021729 171.399796,370.697327 162.616959,373.835876 
	C145.194611,380.061798 126.887474,381.290588 108.640015,379.822906 
	C91.097137,378.411926 74.515327,373.073090 59.677307,362.741699 
	C60.668728,362.205627 61.654461,362.012939 62.640198,362.012909 
	C104.465248,362.011597 146.290298,362.027405 188.115356,362.041138 
z"/>
<path fill="#6754DB" opacity="1.000000" stroke="none" 
	d="
M188.474167,362.013428 
	C146.290298,362.027405 104.465248,362.011597 62.640198,362.012909 
	C61.654461,362.012939 60.668728,362.205627 59.369560,362.571198 
	C54.465904,359.789917 49.875679,356.745850 45.118336,353.405640 
	C46.327995,352.739655 47.704414,352.048096 49.081596,352.046570 
	C98.910728,351.991425 148.739929,351.997894 198.569107,352.020599 
	C199.540298,352.021027 200.511337,352.317108 201.767395,352.790466 
	C197.645889,356.065704 193.239426,359.025726 188.474167,362.013428 
z"/>
<path fill="#6E53DE" opacity="1.000000" stroke="none" 
	d="
M481.411377,340.906860 
	C479.009247,340.696625 476.910278,340.046082 474.810638,340.044067 
	C417.555176,339.988922 360.299683,339.993561 303.044220,340.029816 
	C301.254822,340.030945 299.465668,340.473206 297.284821,340.878174 
	C293.985779,338.245453 291.078308,335.444366 288.501801,332.328552 
	C307.965179,332.009216 327.098267,332.074921 346.229279,331.907043 
	C348.507355,331.887054 350.774231,330.593048 353.046295,329.889587 
	C360.060150,331.956360 366.985718,334.417053 374.105072,336.013397 
	C392.770111,340.198547 410.944641,338.891266 428.867798,330.264954 
	C431.310181,330.683136 433.101166,330.975067 434.892822,330.979126 
	C450.777435,331.015076 466.662598,330.945404 482.546326,331.069611 
	C484.518280,331.085022 486.482819,332.050171 488.450775,332.575226 
	C486.205231,335.306427 483.959717,338.037598 481.411377,340.906860 
z"/>
<path fill="#6754DB" opacity="1.000000" stroke="none" 
	d="
M309.046631,351.361938 
	C310.993469,350.699982 313.091187,350.046844 315.189667,350.044434 
	C365.111694,349.987274 415.033752,349.992615 464.955811,350.029938 
	C466.744629,350.031281 468.533112,350.474060 470.712463,350.881226 
	C467.960083,353.636993 464.817017,356.222656 461.363464,358.953857 
	C459.673767,358.733032 458.294952,358.048279 456.915283,358.046539 
	C412.421570,357.990784 367.927765,357.997955 323.433990,358.020874 
	C322.462372,358.021362 321.490875,358.314636 320.232391,358.784546 
	C316.362946,356.623108 312.780426,354.148499 309.046631,351.361938 
z"/>
<path fill="#7452E0" opacity="1.000000" stroke="none" 
	d="
M352.872925,329.589294 
	C350.774231,330.593048 348.507355,331.887054 346.229279,331.907043 
	C327.098267,332.074921 307.965179,332.009216 288.355469,332.024902 
	C282.757568,327.627869 277.914520,323.033234 277.404846,315.412964 
	C293.207520,315.008301 308.584137,315.038513 323.960114,314.951385 
	C325.658081,314.941772 327.352234,314.261475 329.048157,313.892242 
	C336.931946,319.024536 344.815765,324.156799 352.872925,329.589294 
z"/>
<path fill="#7C50E3" opacity="1.000000" stroke="none" 
	d="
M328.910889,313.591370 
	C327.352234,314.261475 325.658081,314.941772 323.960114,314.951385 
	C308.584137,315.038513 293.207520,315.008301 277.353485,315.022400 
	C273.755035,304.656342 282.270874,292.619446 292.567474,290.967285 
	C301.579559,289.521210 308.725189,292.278259 314.737518,299.123566 
	C319.116425,304.109161 324.074005,308.586548 328.910889,313.591370 
z"/>
<path fill="#7452E0" opacity="1.000000" stroke="none" 
	d="
M488.677521,332.318848 
	C486.482819,332.050171 484.518280,331.085022 482.546326,331.069611 
	C466.662598,330.945404 450.777435,331.015076 434.892822,330.979126 
	C433.101166,330.975067 431.310181,330.683136 429.234558,330.208984 
	C435.079895,325.324829 441.209595,320.756378 447.928650,316.355591 
	C450.311249,316.682190 452.104095,316.973328 453.897858,316.979126 
	C468.640839,317.027008 483.383972,317.021851 498.127075,317.032776 
	C495.052795,322.042664 491.978546,327.052582 488.677521,332.318848 
z"/>
<path fill="#8050E4" opacity="1.000000" stroke="none" 
	d="
M466.089783,286.375549 
	C477.662598,286.001953 489.158783,285.938965 500.653381,286.044556 
	C503.441895,286.070190 506.225281,286.651123 509.422424,286.989716 
	C508.220581,292.086639 506.607422,297.170502 504.457764,302.627197 
	C490.634827,303.000000 477.348114,303.039551 464.062286,302.951172 
	C462.354462,302.939789 460.651062,302.264252 458.945618,301.896362 
	C461.301270,296.846954 463.656891,291.797546 466.089783,286.375549 
z"/>
<path fill="#7C50E3" opacity="1.000000" stroke="none" 
	d="
M458.635498,302.049408 
	C460.651062,302.264252 462.354462,302.939789 464.062286,302.951172 
	C477.348114,303.039551 490.634827,303.000000 504.378326,303.000488 
	C502.799133,307.560333 500.762878,312.119690 498.426880,316.855896 
	C483.383972,317.021851 468.640839,317.027008 453.897858,316.979126 
	C452.104095,316.973328 450.311249,316.682190 448.233643,316.207458 
	C451.407990,311.328613 454.866699,306.765533 458.635498,302.049408 
z"/>
</svg>